<?xml version="1.0" standalone="no"?>
<!DOCTYPE svg PUBLIC "-//W3C//DTD SVG 20010904//EN"
 "http://www.w3.org/TR/2001/REC-SVG-20010904/DTD/svg10.dtd">
<svg version="1.0" xmlns="http://www.w3.org/2000/svg"
 width="500.000000pt" height="500.000000pt" viewBox="0 0 500.000000 500.000000"
 preserveAspectRatio="xMidYMid meet">

<g transform="translate(0.000000,500.000000) scale(0.100000,-0.100000)"
fill="#000000" stroke="none">
<path d="M1501 4294 c-157 -42 -321 -185 -371 -323 l-22 -58 -67 -5 c-163 -12
-304 -135 -355 -307 -48 -162 23 -352 168 -450 101 -68 78 -65 654 -71 l522
-5 -87 -125 c-117 -169 -251 -363 -468 -680 -100 -146 -238 -346 -307 -445
-68 -99 -178 -259 -244 -355 -66 -96 -145 -211 -176 -255 -180 -262 -188 -275
-188 -323 0 -37 33 -88 69 -107 27 -14 220 -15 1851 -13 l1822 3 29 32 c62 70
53 115 -56 274 -46 68 -135 201 -199 294 -63 94 -174 256 -245 360 -72 105
-185 271 -253 370 -223 327 -258 379 -304 442 l-44 62 142 -1 c119 -1 156 2
223 21 114 32 208 80 300 155 131 106 220 240 271 411 49 164 36 375 -33 540
-82 196 -260 373 -449 447 -407 158 -846 -15 -1034 -407 -21 -44 -46 -113 -56
-152 -9 -40 -18 -73 -20 -73 -1 0 -15 5 -31 11 -15 6 -42 11 -60 11 -29 0 -33
4 -53 61 -17 47 -38 76 -84 123 -58 57 -79 69 -179 100 -24 8 -32 20 -50 75
-89 266 -367 430 -616 363z m275 -160 c33 -16 87 -56 121 -89 52 -52 64 -71
82 -129 12 -38 21 -86 21 -109 0 -59 21 -77 89 -77 97 0 182 -52 216 -132 25
-62 20 -98 -26 -159 -23 -30 -65 -91 -95 -136 l-54 -83 -357 -2 c-710 -5 -743
-5 -795 15 -55 22 -121 89 -150 155 -50 112 -14 255 83 332 64 50 105 61 204
54 44 -3 86 -1 93 4 7 5 19 38 27 74 31 148 120 247 269 300 78 28 196 21 272
-18z m1789 -52 c127 -34 229 -99 326 -208 64 -72 100 -136 136 -236 34 -99 43
-282 19 -378 -38 -149 -144 -310 -260 -394 -170 -123 -398 -163 -583 -101 -93
31 -101 38 -186 164 -34 50 -118 174 -187 274 l-125 182 3 59 c10 247 160 488
367 593 42 22 158 58 210 67 55 8 209 -4 280 -22z m-1059 -659 c9 -9 47 -62
84 -118 36 -55 98 -144 136 -198 38 -54 78 -113 89 -130 10 -18 60 -91 111
-162 50 -72 99 -144 108 -160 9 -17 57 -86 106 -155 89 -124 89 -125 68 -142
-38 -33 -47 -28 -289 155 -64 48 -123 87 -132 87 -8 0 -53 -41 -99 -91 -170
-186 -194 -209 -219 -209 -19 0 -55 32 -149 135 -68 74 -131 135 -141 135 -9
0 -50 -19 -91 -42 -102 -58 -402 -207 -407 -202 -2 2 9 21 25 42 17 20 61 82
98 137 96 143 221 324 376 545 74 105 163 233 197 283 78 114 94 125 129 90z"/>
</g>
</svg>
